<?xml version="1.0" encoding="UTF-8"?>
<svg xmlns="http://www.w3.org/2000/svg" viewBox="0 0 566.93 109.6">
	<path fill="#fff" d="m28.7,1.37L0,108.23h20.91l6.56-24.58h42.13l6.56,24.58h20.91L68.69,1.37H28.7Zm4.12,62.43L48.54,5.19l15.72,58.62h-31.45Z"/>
	<path fill="#fff" d="m148.37,19.85c15.57,0,23.97,7.48,24.58,21.07h20.61c-.76-25.95-18.77-40.91-45.18-40.91s-45.18,16.49-45.18,45.64v18.32c0,29.15,18.32,45.64,45.18,45.64s43.96-14.35,45.18-39.69h-20.61c-.92,12.97-9.46,20.61-24.58,20.61-16.03,0-24.58-9.62-24.58-26.56v-18.32c0-16.94,8.55-25.8,24.58-25.8Z"/>
	<path fill="#fff" d="m540.67,46.86l-18.47-5.04c-8.09-2.14-12.82-4.43-12.82-11.3,0-5.19,4.73-11.45,17.55-11.45s19.08,7.94,19.39,15.57h20.46c-.31-18.93-15.27-34.65-39.84-34.65s-38.16,13.28-38.16,31.45c0,17.1,11.45,25.03,27.63,29.46l17.55,4.73c7.94,2.14,12.21,5.65,12.21,12.36s-6.26,12.52-20.76,12.52c-13.13,0-20.91-7.63-21.52-18.17h-20.46c.61,21.68,16.03,37.25,41.98,37.25,23.2,0,41.52-12.52,41.52-31.6,0-15.11-7.94-26.1-26.25-31.14Z"/>
	<polygon fill="#fff" points="341.17 55.56 316.89 1.37 294.46 1.37 321.47 59.38 330.63 59.38 330.63 108.23 351.24 108.23 351.24 59.38 360.55 59.38 387.42 1.37 365.28 1.37 341.17 55.56"/>
	<path fill="#fff" d="m444.97,1.37h-45.34v106.85h20.3v-43.66h25.04c19.84,0,32.36-13.13,32.36-31.75s-12.52-31.45-32.36-31.45Zm-3.82,44.11h-21.22v-25.03h21.22c9.92,0,14.81,3.51,14.81,12.52s-4.89,12.52-14.81,12.52Z"/>
	<path fill="#fff" d="m255.68,64.57c21.83,0,32.36-13.13,32.36-31.75S275.53,1.37,255.68,1.37h-45.34v106.85h20.3v-22.13l29,22.13h34.04l-59.23-43.66h21.22Zm-25.03-44.11h21.22c9.92,0,14.81,3.51,14.81,12.52s-4.89,12.52-14.81,12.52h-21.22v-25.03Z"/>
</svg>